# xmcd
#
# Track frame offsets: 
#        150
#        11862
#        23055
#        34072
#        43837
#        54387
#        67517
#        78960
#        91540
#        104635
#        116257
#        126152
#        137807
#        149697
#        161522
#        171145
#        181960
#        195222
#        206185
#        216850
#        227080
#        238782
#        250222
#        259620
#        269850
#        280985
#        293132
#        305422
#
# Disc length: 4262 seconds
#
# Revision: 7
# Processed by: cddbd v1.5.2PL0 Copyright (c) Steve Scherf et al.
# Submitted via: ExactAudioCopy v1.1
#
DISCID=9610a41c
DTITLE=Webb Pierce - The Wondering Boy 1951-1958 - Disc 2
DYEAR=1990
DGENRE=Country
TTITLE0=There's A Better Home (mono)
TTITLE1=Mother Call My Name In Prayer (mono)
TTITLE2=I'm Walking The Dog (mono)
TTITLE3=You Just Can't Be True (mono)
TTITLE4=Slowly (version 2) (mono)
TTITLE5=Broken Engagement (mono)
TTITLE6=Slowly (version 3) (mono)
TTITLE7=Even Tho' (mono)
TTITLE8=Webb Pierce and The Wilburn Brothers - Sparkling Brown Eyes (mon
TTITLE8=o)
TTITLE9=Bugle Call From Heaven (mono)
TTITLE10=Thank You, Dear Lord (mono)
TTITLE11=Kneel At The Cross (mono)
TTITLE12=Leaning On The Everlasting Arms (mono)
TTITLE13=You're Not Mine Anymore (mono)
TTITLE14=I'm Gonna Fall Out Of Love With You (mono)
TTITLE15=Your Good For Nothing Heart (mono)
TTITLE16=Just Imagination (mono)
TTITLE17=I Love You Dear (mono)
TTITLE18=More And More (mono)
TTITLE19=I Found Someone That's True (mono)
TTITLE20=Bob and Bob (Webb Pierce and Teddy Wilburn) - The Waltz You Saved
TTITLE20=For Me (mono)
TTITLE21=Bob and Bob (Webb Pierce and Teddy Wilburn) - One Day Later (mono
TTITLE21=)
TTITLE22=In The Jailhouse Now (mono)
TTITLE23=Sneakin' All Around (mono)
TTITLE24=I Don't Care (mono)
TTITLE25=Just How Long (mono)
TTITLE26=Yes, I Know Why (I Want To Cry) (mono)
TTITLE27=Webb Pierce and Red Sovine - Little Rosa (mono)
EXTD=The Wondering "Boy" 1951-1958 - Disc 2 of 4\n© 1990 Bear Family R
EXTD=ecords\n\nUPC: 4000127155221\nCat Number: BCD 15522 DH\n\nOrigina
EXTD=lly Released September 15, 1990\n\n\nAMG EXPERT REVIEW:  \nFor th
EXTD=e devout, Germany's Bear Family offers a 4-CD boxed set of Pierce
EXTD='s primal honky tonk, a total of 113 songs by one of the seminal 
EXTD=post-war country artists, including duets with Kitty Wells, Red S
EXTD=ovine, and the Wilburn Brothers. This is the best sound quality a
EXTD=nd presentation available of this influential music.  -- Mark A. 
EXTD=Humphrey\n\nAmazon.com Editorial Review: \n(4-CD LP-sized box set
EXTD=with 36-page book) Webb Pierce is one of the neglected giants of
EXTD=post-War country music. No-one sold more records in the '50s, ye
EXTD=t those classic cuts were never available on CD until this set. H
EXTD=ere they are again... Back Street Affair, More And More, I Don't 
EXTD=Care, There Stands The Glass, In The Jailhouse Now, Honky Tonk So
EXTD=ng, Any Old Time, Teenage Boogie, Slowly, Honky Tonk Song, I'm Wa
EXTD=lking The Dog...they're all here. 113 performances - an incredibl
EXTD=e 40 of them were hits!
EXTT0=
EXTT1=
EXTT2=
EXTT3=
EXTT4=
EXTT5=
EXTT6=
EXTT7=
EXTT8=
EXTT9=
EXTT10=
EXTT11=
EXTT12=
EXTT13=
EXTT14=
EXTT15=
EXTT16=
EXTT17=
EXTT18=
EXTT19=
EXTT20=
EXTT21=
EXTT22=
EXTT23=
EXTT24=
EXTT25=
EXTT26=
EXTT27=
PLAYORDER=
